<svg xmlns="http://www.w3.org/2000/svg"><symbol id="book-with-apple" viewBox="0 0 50 50"><path d="M25.003 30.75c7.435 3.218 12.28-7.191 12.28-13.974 0-6.549-5.038-10.39-11.581-7.503 1.013-1.688 3.094-4.722 5.741-6.276l-3.319-1.549c-1.837 1.917-3.249 5.768-3.896 7.766-5.899-2.667-11.5 1.067-11.5 7.562.001 6.782 5.22 17.084 12.275 13.974zm-3.604-19.659c-4.13 4.096-4.376 10.679-1.052 16.574-3.073-2.818-4.668-6.191-4.668-10.155.001-3.796 2.518-6.358 5.72-6.419z"/><path d="M24.998 7.024s.27-3.27-1.58-5.12C21.565.053 18.299.325 18.299.325s-.274 3.271 1.578 5.122c1.85 1.849 5.121 1.577 5.121 1.577zM50 35.35v-3.996H9.168C4.115 31.354 0 35.465 0 40.521c0 5.054 4.115 9.168 9.168 9.168H50v-3.996c-.582 0-1.996-1.813-1.996-5.172S49.418 35.35 50 35.35zM9.168 41.18l34.898-.001c.072 1.68.369 3.23.92 4.515H9.168a5.18 5.18 0 0 1-5.173-5.172 5.179 5.179 0 0 1 5.173-5.171h35.818c-.551 1.28-.848 2.835-.92 4.511l-34.898.001a.66.66 0 1 0 0 1.317z"/></symbol><symbol id="gh" viewBox="0 0 438.549 438.549"><path d="M409.132 114.573c-19.608-33.596-46.205-60.194-79.798-79.8-33.598-19.607-70.277-29.408-110.063-29.408-39.781 0-76.472 9.804-110.063 29.408-33.596 19.605-60.192 46.204-79.8 79.8C9.803 148.168 0 184.854 0 224.63c0 47.78 13.94 90.745 41.827 128.906 27.884 38.164 63.906 64.572 108.063 79.227 5.14.954 8.945.283 11.419-1.996 2.475-2.282 3.711-5.14 3.711-8.562 0-.571-.049-5.708-.144-15.417a2549.81 2549.81 0 0 1-.144-25.406l-6.567 1.136c-4.187.767-9.469 1.092-15.846 1-6.374-.089-12.991-.757-19.842-1.999-6.854-1.231-13.229-4.086-19.13-8.559-5.898-4.473-10.085-10.328-12.56-17.556l-2.855-6.57c-1.903-4.374-4.899-9.233-8.992-14.559-4.093-5.331-8.232-8.945-12.419-10.848l-1.999-1.431c-1.332-.951-2.568-2.098-3.711-3.429-1.142-1.331-1.997-2.663-2.568-3.997-.572-1.335-.098-2.43 1.427-3.289 1.525-.859 4.281-1.276 8.28-1.276l5.708.853c3.807.763 8.516 3.042 14.133 6.851 5.614 3.806 10.229 8.754 13.846 14.842 4.38 7.806 9.657 13.754 15.846 17.847 6.184 4.093 12.419 6.136 18.699 6.136 6.28 0 11.704-.476 16.274-1.423 4.565-.952 8.848-2.383 12.847-4.285 1.713-12.758 6.377-22.559 13.988-29.41-10.848-1.14-20.601-2.857-29.264-5.14-8.658-2.286-17.605-5.996-26.835-11.14-9.235-5.137-16.896-11.516-22.985-19.126-6.09-7.614-11.088-17.61-14.987-29.979-3.901-12.374-5.852-26.648-5.852-42.826 0-23.035 7.52-42.637 22.557-58.817-7.044-17.318-6.379-36.732 1.997-58.24 5.52-1.715 13.706-.428 24.554 3.853 10.85 4.283 18.794 7.952 23.84 10.994 5.046 3.041 9.089 5.618 12.135 7.708 17.705-4.947 35.976-7.421 54.818-7.421s37.117 2.474 54.823 7.421l10.849-6.849c7.419-4.57 16.18-8.758 26.262-12.565 10.088-3.805 17.802-4.853 23.134-3.138 8.562 21.509 9.325 40.922 2.279 58.24 15.036 16.18 22.559 35.787 22.559 58.817 0 16.178-1.958 30.497-5.853 42.966-3.9 12.471-8.941 22.457-15.125 29.979-6.191 7.521-13.901 13.85-23.131 18.986-9.232 5.14-18.182 8.85-26.84 11.136-8.662 2.286-18.415 4.004-29.263 5.146 9.894 8.562 14.842 22.077 14.842 40.539v60.237c0 3.422 1.19 6.279 3.572 8.562 2.379 2.279 6.136 2.95 11.276 1.995 44.163-14.653 80.185-41.062 108.068-79.226 27.88-38.161 41.825-81.126 41.825-128.906-.01-39.771-9.818-76.454-29.414-110.049z"/></symbol><symbol id="responsive-symbol-with-a-widescreen-monitor-a-cellphone-and-a-tablet" viewBox="0 0 48.832 48.832"><path d="M15.42 32.814h6.81v1.571h-6.81v1.295h21.418v-1.295h-7.94v-1.571h8.831v-3.587H15.42zM9.489 11.231h32.468v12.978h2.782V8.449H6.707v8.691h2.782z"/><path d="M0 39.799h14.523V18.013H0v21.786zm7.568-1.094a.7.7 0 1 1-.001-1.399.7.7 0 0 1 .001 1.399zM2.1 20.113h10.325l-.001 16.072H2.1V20.113zM38.715 25.046v15.337h10.117V25.046H38.715zm5.264.634c.121 0 .22.101.22.221a.222.222 0 0 1-.22.222.224.224 0 0 1-.223-.222c0-.121.099-.221.223-.221zm-1.314.736h2.623v.212h-2.623v-.212zm1.226 13.305a.524.524 0 1 1 0-1.048.524.524 0 0 1 0 1.048zm3.478-1.806c-2.368.013-6.016.022-7.189.012V27.382l7.189-.001v10.534z"/></symbol><symbol id="vk" viewBox="0 0 96.496 96.496"><path d="M92.499 65.178c-2.873-3.446-6.254-6.387-9.453-9.51-2.886-2.815-3.068-4.448-.748-7.697 2.532-3.546 5.255-6.956 7.81-10.486 2.385-3.299 4.823-6.589 6.078-10.539.796-2.513.092-3.623-2.485-4.063-.444-.077-.903-.081-1.355-.081l-15.289-.018c-1.883-.028-2.924.793-3.59 2.462-.899 2.256-1.826 4.51-2.897 6.687-2.43 4.936-5.144 9.707-8.949 13.747-.839.891-1.767 2.017-3.169 1.553-1.754-.64-2.271-3.53-2.242-4.507l-.015-17.647c-.34-2.521-.899-3.645-3.402-4.135l-15.882.003c-2.12 0-3.183.819-4.315 2.145-.653.766-.85 1.263.492 1.517 2.636.5 4.121 2.206 4.515 4.849.632 4.223.588 8.463.224 12.703-.107 1.238-.32 2.473-.811 3.629-.768 1.817-2.008 2.187-3.637 1.069-1.475-1.012-2.511-2.44-3.525-3.874-3.809-5.382-6.848-11.186-9.326-17.285-.716-1.762-1.951-2.83-3.818-2.859a389.727 389.727 0 0 0-13.762.004c-2.76.052-3.583 1.392-2.459 3.894 4.996 11.113 10.557 21.917 17.816 31.759 3.727 5.051 8.006 9.51 13.534 12.67 6.265 3.582 13.009 4.66 20.112 4.328 3.326-.156 4.325-1.021 4.479-4.336.104-2.268.361-4.523 1.48-6.561 1.098-2 2.761-2.381 4.678-1.137.959.623 1.767 1.416 2.53 2.252 1.872 2.048 3.677 4.158 5.62 6.137 2.437 2.48 5.324 3.945 8.954 3.646l14.052.003c2.264-.148 3.438-2.924 2.138-5.451-.913-1.77-2.111-3.346-3.383-4.871z"/></symbol></svg>